<svg width="521" height="170" viewBox="0 0 521 170" fill="none" xmlns="http://www.w3.org/2000/svg">
<path d="M108 48C119.046 48 128 39.0457 128 28C128 16.9543 119.046 8 108 8C96.9543 8 88 16.9543 88 28C88 39.0457 96.9543 48 108 48Z" stroke="#673DE6" stroke-width="2"/>
<path d="M108 168C119.046 168 128 159.046 128 148C128 136.954 119.046 128 108 128C96.9543 128 88 136.954 88 148C88 159.046 96.9543 168 108 168Z" stroke="#673DE6" stroke-width="2"/>
<path d="M28 128C39.0457 128 48 119.046 48 108C48 96.9543 39.0457 88 28 88C16.9543 88 8 96.9543 8 108C8 119.046 16.9543 128 28 128Z" stroke="#673DE6" stroke-width="2"/>
<path d="M148 128C159.046 128 168 119.046 168 108C168 96.9543 159.046 88 148 88C136.954 88 128 96.9543 128 108C128 119.046 136.954 128 148 128Z" stroke="#673DE6" stroke-width="2"/>
<path d="M8 108C8 96.9543 16.9543 88 28 88H148C159.046 88 168 96.9543 168 108C168 119.046 159.046 128 148 128H28C16.9543 128 8 119.046 8 108Z" stroke="#673DE6" stroke-width="2"/>
<path d="M108 168C96.9543 168 88 159.046 88 148V28C88 16.9543 96.9543 8 108 8C119.046 8 128 16.9543 128 28V148C128 159.046 119.046 168 108 168Z" stroke="#673DE6" stroke-width="2"/>
<path d="M14.1421 121.995C6.33163 114.184 6.33163 101.521 14.1421 93.7106L93.7107 14.1421C101.521 6.33155 114.184 6.33154 121.995 14.1421C129.805 21.9525 129.805 34.6158 121.995 42.4263L42.4264 121.995C34.6159 129.805 21.9526 129.805 14.1421 121.995Z" stroke="#673DE6" stroke-width="2"/>
<path d="M460 48C471.046 48 480 39.0457 480 28C480 16.9543 471.046 8 460 8C448.954 8 440 16.9543 440 28C440 39.0457 448.954 48 460 48Z" stroke="#673DE6" stroke-width="2"/>
<path d="M460 168C471.046 168 480 159.046 480 148C480 136.954 471.046 128 460 128C448.954 128 440 136.954 440 148C440 159.046 448.954 168 460 168Z" stroke="#673DE6" stroke-width="2"/>
<path d="M380 128C391.046 128 400 119.046 400 108C400 96.9543 391.046 88 380 88C368.954 88 360 96.9543 360 108C360 119.046 368.954 128 380 128Z" stroke="#673DE6" stroke-width="2"/>
<path d="M500 128C511.046 128 520 119.046 520 108C520 96.9543 511.046 88 500 88C488.954 88 480 96.9543 480 108C480 119.046 488.954 128 500 128Z" stroke="#673DE6" stroke-width="2"/>
<path d="M360 108C360 96.9543 368.954 88 380 88H500C511.046 88 520 96.9543 520 108C520 119.046 511.046 128 500 128H380C368.954 128 360 119.046 360 108Z" stroke="#673DE6" stroke-width="2"/>
<path d="M460 168C448.954 168 440 159.046 440 148V28C440 16.9543 448.954 8 460 8C471.046 8 480 16.9543 480 28V148C480 159.046 471.046 168 460 168Z" stroke="#673DE6" stroke-width="2"/>
<path d="M366.142 121.995C358.332 114.184 358.332 101.521 366.142 93.7106L445.711 14.1421C453.521 6.33155 466.184 6.33154 473.995 14.1421C481.805 21.9525 481.805 34.6158 473.995 42.4263L394.426 121.995C386.616 129.805 373.953 129.805 366.142 121.995Z" stroke="#673DE6" stroke-width="2"/>
<path d="M260 168C304.183 168 340 132.183 340 88C340 43.8172 304.183 8 260 8C215.817 8 180 43.8172 180 88C180 132.183 215.817 168 260 168Z" stroke="#673DE6" stroke-width="2"/>
<path d="M7 7L520 7.00004" stroke="#673DE6" stroke-width="2"/>
<path d="M7 169H520" stroke="#673DE6" stroke-width="2"/>
<path d="M276.24 115.531H247.255C243.272 115.531 237.17 111.885 237.17 107.875C237.17 103.866 239.88 100.68 243.863 100.68H285.501C285.501 100.661 285.503 100.645 285.503 100.606C285.503 92.563 279.124 85.0712 272.103 84.7499L252.821 84.5851C248.755 84.5851 243.549 80.976 243.549 76.9289C243.549 72.869 245.89 69.9109 249.955 69.9109H279.243C279.27 69.559 279.279 69.2171 279.279 68.8627C279.279 60.7167 272.494 54.1177 264.303 54.1177H254.854C246.675 54.1177 239.564 60.7167 239.564 68.8627C239.564 73.6312 241.001 77.4307 243.371 80.1351C244.22 81.107 244.564 83.4434 242.912 85.0535C241.973 85.9649 241.785 86.1948 239.722 87.6887C235.934 90.4499 233.173 95.0828 233.173 100.606C233.173 103.697 234.005 106.558 235.409 108.933C236.478 110.747 237.807 111.462 237.807 113.921C237.807 115.364 237.235 116.714 234.141 118.933C230.487 121.541 228.394 125.951 228.394 130.917C228.394 130.991 228.398 131.084 228.398 131.158H290.603C290.603 131.084 290.606 130.991 290.606 130.917C290.606 122.769 284.168 116.563 276.24 115.531Z" fill="#673DE6"/>
<path d="M259.502 37.8423C257.125 37.8423 255.192 39.7746 255.192 42.1518C255.192 44.5257 257.125 46.4617 259.502 46.4617C261.876 46.4617 263.81 44.5257 263.81 42.1518C263.81 39.7746 261.876 37.8423 259.502 37.8423Z" fill="#673DE6"/>
</svg>
